<?xml version="1.0" encoding="UTF-8" standalone="no"?>
<svg
   xmlns:dc="http://purl.org/dc/elements/1.1/"
   xmlns:cc="http://creativecommons.org/ns#"
   xmlns:rdf="http://www.w3.org/1999/02/22-rdf-syntax-ns#"
   xmlns:svg="http://www.w3.org/2000/svg"
   xmlns="http://www.w3.org/2000/svg"
   xmlns:sodipodi="http://sodipodi.sourceforge.net/DTD/sodipodi-0.dtd"
   xmlns:inkscape="http://www.inkscape.org/namespaces/inkscape"
   version="1.1"
   x="0px"
   y="0px"
   viewBox="0 0 100 125"
   enable-background="new 0 0 100 100"
   xml:space="preserve"
   id="svg2"
   inkscape:version="0.91 r13725"
   sodipodi:docname="about.svg"><metadata
     id="metadata208"><rdf:RDF><cc:Work
         rdf:about=""><dc:format>image/svg+xml</dc:format><dc:type
           rdf:resource="http://purl.org/dc/dcmitype/StillImage" /></cc:Work></rdf:RDF></metadata><defs
     id="defs206"><clipPath
       clipPathUnits="userSpaceOnUse"
       id="clipPath3538"><rect
         style="fill:#0000ff;fill-rule:evenodd;stroke:#000000;stroke-width:1px;stroke-linecap:butt;stroke-linejoin:miter;stroke-opacity:1"
         id="rect3540"
         width="91.631355"
         height="92.42585"
         x="5.0317798"
         y="4.5021186" /></clipPath><clipPath
       clipPathUnits="userSpaceOnUse"
       id="clipPath3542"><rect
         style="fill:#0000ff;fill-rule:evenodd;stroke:#000000;stroke-width:1px;stroke-linecap:butt;stroke-linejoin:miter;stroke-opacity:1"
         id="rect3544"
         width="91.631355"
         height="92.42585"
         x="5.0317798"
         y="4.5021186" /></clipPath><clipPath
       clipPathUnits="userSpaceOnUse"
       id="clipPath3546"><rect
         style="fill:#0000ff;fill-rule:evenodd;stroke:#000000;stroke-width:1px;stroke-linecap:butt;stroke-linejoin:miter;stroke-opacity:1"
         id="rect3548"
         width="91.631355"
         height="92.42585"
         x="5.0317798"
         y="4.5021186" /></clipPath></defs><sodipodi:namedview
     pagecolor="#ffffff"
     bordercolor="#666666"
     borderopacity="1"
     objecttolerance="10"
     gridtolerance="10"
     guidetolerance="10"
     inkscape:pageopacity="0"
     inkscape:pageshadow="2"
     inkscape:window-width="1234"
     inkscape:window-height="806"
     id="namedview204"
     showgrid="false"
     inkscape:zoom="3.776"
     inkscape:cx="79.628801"
     inkscape:cy="53.293793"
     inkscape:window-x="109"
     inkscape:window-y="10"
     inkscape:window-maximized="0"
     inkscape:current-layer="svg2" /><g
     id="g4"
     clip-path="url(#clipPath3546)"
     transform="matrix(0.2501537,0,0,0.2501537,-1.3229158,-0.72951334)"><g
       id="g6"><path
         d="m 47.756,95.092 c -19.541,0 -35.437,-16.559 -35.437,-36.91 0,-20.353 15.896,-36.911 35.437,-36.911 19.539,0 35.437,16.558 35.437,36.911 -0.001,20.351 -15.898,36.91 -35.437,36.91 z m 0,-71.575 c -18.302,0 -33.192,15.551 -33.192,34.665 0,19.114 14.89,34.665 33.192,34.665 18.301,0 33.191,-15.551 33.191,-34.665 0,-19.114 -14.89,-34.665 -33.191,-34.665 z"
         id="path8"
         inkscape:connector-curvature="0" /></g><g
       id="g10"><g
         id="g12"><path
           d="m 67.654,68.612 c -0.194,0 -0.392,-0.051 -0.571,-0.157 -0.875,-0.52 -5.114,-0.952 -6.735,-0.411 -0.588,0.19 -1.224,-0.123 -1.419,-0.711 -0.195,-0.589 0.124,-1.225 0.712,-1.42 2.038,-0.677 7.017,-0.323 8.589,0.609 0.533,0.317 0.708,1.006 0.392,1.54 -0.211,0.353 -0.584,0.55 -0.968,0.55 z"
           id="path14"
           inkscape:connector-curvature="0" /></g></g><g
       id="g16"><g
         id="g18"><path
           d="m 27.857,68.612 c -0.383,0 -0.756,-0.197 -0.966,-0.55 -0.316,-0.534 -0.141,-1.223 0.393,-1.54 1.573,-0.932 6.55,-1.287 8.588,-0.609 0.589,0.195 0.907,0.831 0.712,1.42 -0.196,0.588 -0.83,0.902 -1.419,0.711 -1.624,-0.539 -5.861,-0.107 -6.735,0.411 -0.18,0.107 -0.378,0.157 -0.573,0.157 z"
           id="path20"
           inkscape:connector-curvature="0" /></g></g><g
       id="g22"><g
         id="g24"><g
           id="g26"><path
             d="m 47.724,80.145 c -0.102,0 -0.199,-0.005 -0.293,-0.013 -1.27,-0.097 -2.309,-0.81 -2.735,-1.432 -0.085,-0.125 -0.054,-0.295 0.071,-0.381 0.125,-0.084 0.294,-0.052 0.379,0.071 0.356,0.517 1.236,1.113 2.328,1.196 0.742,0.057 1.847,-0.113 2.918,-1.25 0.104,-0.111 0.278,-0.115 0.388,-0.013 0.108,0.104 0.113,0.276 0.011,0.386 -1.09,1.156 -2.225,1.436 -3.067,1.436 z"
             id="path28"
             inkscape:connector-curvature="0"
             style="fill:#000000" /><path
             d="m 47.724,80.986 c -0.126,0 -0.247,-0.006 -0.362,-0.016 -1.55,-0.118 -2.807,-0.986 -3.36,-1.793 -0.348,-0.51 -0.219,-1.204 0.288,-1.552 0.5,-0.338 1.212,-0.198 1.549,0.284 0.2,0.29 0.835,0.771 1.699,0.837 0.058,0.004 0.119,0.007 0.183,0.007 0.744,0 1.436,-0.334 2.059,-0.995 0.404,-0.429 1.146,-0.453 1.576,-0.048 0.448,0.425 0.468,1.13 0.049,1.576 -1.325,1.405 -2.733,1.7 -3.681,1.7 z"
             id="path30"
             inkscape:connector-curvature="0" /></g></g></g><path
       d="M 91.927,37.958 C 90.814,34.342 87.856,30.088 83.474,30.412 77.419,15.613 71.031,10.858 60.734,6.905 57.7,5.741 53.169,5.073 48.303,5.073 44.349,5.073 34.542,5.572 28.886,10.187 6.122,28.76 7.059,48.58 7.618,60.42 c 0.018,0.37 0.274,0.686 0.632,0.777 0.358,0.09 0.735,-0.063 0.928,-0.379 2.905,-4.771 8.309,-9.432 10.725,-11.387 0.178,1.158 0.589,2.942 1.519,5.484 0.094,0.257 0.305,0.452 0.568,0.524 0.263,0.071 0.544,0.012 0.755,-0.16 6.452,-5.262 19.225,-10.027 23.16,-11.421 -0.377,4.053 -2.036,8.944 -2.054,8.998 -0.099,0.29 -0.033,0.611 0.173,0.838 0.206,0.229 0.521,0.325 0.817,0.254 0.454,-0.107 1.114,-0.232 1.944,-0.392 4.883,-0.933 14.738,-2.815 23.894,-8.151 -0.521,2.88 -1.242,8.372 -0.059,12.273 0.093,0.308 0.359,0.527 0.678,0.579 0.316,0.056 0.643,-0.092 0.828,-0.356 0.571,-0.816 5.448,-3.584 7.002,-4.034 0.767,1.853 3.422,9.82 3.339,15.906 -0.005,0.384 0.25,0.722 0.62,0.822 0.073,0.021 0.148,0.03 0.222,0.03 0.296,0 0.578,-0.157 0.73,-0.423 9.148,-15.96 9.262,-27.777 7.888,-32.244 z"
       id="path32"
       inkscape:connector-curvature="0" /></g><g
     display="none"
     id="g34"><g
       display="inline"
       id="g36"><path
         d="M49.938,82.625c-15.019,0-32.923-5.671-32.923-32.688c0-30.35,12.075-32.695,29.133-32.695l3.79,0.007l3.79-0.007    c17.058,0,29.133,2.345,29.133,32.695C82.86,76.954,64.957,82.625,49.938,82.625z M46.148,19.243c-14.56,0-27.133,0-27.133,30.695    c0,20.362,10.404,30.688,30.923,30.688c20.519,0,30.923-10.325,30.923-30.688c0-30.695-12.574-30.695-27.133-30.695l-3.79,0.007    L46.148,19.243z"
         id="path38" /></g><path
       display="inline"
       d="M84.461,26.853c0.259-0.439,0.396-0.951,0.403-1.516c0.016-1.211-0.563-2.44-1.063-3.192   c0.548-1.295,0.639-3.062,0.188-4.485c-0.219-0.688-0.549-1.232-0.972-1.608c0.19-1.906-0.002-3.062-0.62-3.803   c-0.354-0.426-0.831-0.689-1.418-0.788c-1.377-1.12-2.654-1.393-3.692-0.868c-0.644-0.493-1.512-0.771-2.479-0.771   c-0.756,0-1.592,0.179-2.263,0.56c-0.592-0.654-1.37-1.031-2.205-1.031c-0.905,0-1.725,0.434-2.322,1.188   c-0.932-0.626-2.164-0.921-3.195-0.921c-0.833,0-1.566,0.18-2.146,0.51c-0.706-0.887-1.575-1.009-1.999-1.009   c-0.658,0-1.313,0.273-1.818,0.714c-0.77-0.541-1.718-0.838-2.736-0.838c-0.953,0-1.835,0.263-2.499,0.715   c-0.791-0.714-1.844-1.129-2.953-1.129c-1.046,0-1.994,0.357-2.704,0.99c-0.816-0.658-1.773-1.011-2.779-1.011   c-1.134,0-2.192,0.444-2.966,1.198c-0.609-0.553-1.387-0.86-2.244-0.86c-1.014,0-1.952,0.419-2.602,1.102   c-0.792-0.619-1.702-0.949-2.652-0.949c-0.979,0-1.882,0.361-2.534,0.959c-0.6-0.493-1.376-0.776-2.219-0.776   c-0.984,0-1.91,0.39-2.541,1.069c-0.145,0.155-0.296,0.35-0.431,0.587c-1.349-0.8-3.237-1.011-4.339-0.283   c-1.042-0.543-2.329-0.278-3.72,0.854c-0.587,0.098-1.063,0.362-1.417,0.787c-0.618,0.741-0.811,1.896-0.621,3.804   c-0.423,0.375-0.753,0.919-0.971,1.607c-0.451,1.423-0.36,3.19,0.188,4.485c-0.5,0.752-1.08,1.982-1.064,3.193   c0.008,0.564,0.145,1.076,0.403,1.515c-0.9,1.563-0.769,3.081,0.392,4.525c-0.283,1.144-0.179,2.216,0.308,3.067   c0.248,0.432,0.587,0.782,0.981,1.02c0.079,0.57,0.324,1.133,0.703,1.579c0.478,0.563,1.099,0.873,1.749,0.873   c0.223,0,0.499-0.038,0.794-0.162c0.522,0.446,1.205,0.695,1.96,0.695c0.572,0,1.389-0.145,2.305-0.749   c0.595,0.429,1.395,0.68,2.257,0.68c0.996,0,1.925-0.326,2.7-0.934c0.74,0.577,1.736,0.935,2.72,0.935   c0.971,0,1.871-0.334,2.62-0.958c0.882,0.776,2.019,1.242,3.124,1.242c1.202,0,2.309-0.536,3.199-1.53   c1.234,0.929,2.628,1.431,4.017,1.431c1.249,0,2.377-0.421,3.223-1.181c0.62,0.333,1.412,0.527,2.247,0.527   c1.074,0,2.039-0.327,2.783-0.923c1.052,1.024,2.431,1.628,3.811,1.628c1.047,0,2.061-0.333,2.98-0.971   c1.076,1.273,2.191,1.571,2.998,1.571c0.959,0,1.931-0.432,2.741-1.191c0.703,0.556,1.548,0.853,2.464,0.853   c1.181,0,2.262-0.472,3.02-1.088c0.699,0.545,1.508,0.836,2.353,0.836c0.824,0,1.624-0.287,2.227-0.764   c0.645,0.443,1.247,0.661,1.824,0.661c0.477,0,1.091-0.149,1.65-0.741c0.268,0.101,0.516,0.133,0.721,0.133   c0.649,0,1.271-0.31,1.748-0.872c0.379-0.446,0.624-1.009,0.704-1.579c0.395-0.239,0.734-0.588,0.981-1.021   c0.486-0.851,0.591-1.922,0.308-3.066C85.229,29.935,85.361,28.417,84.461,26.853z"
       id="path40" /><g
       display="inline"
       id="g42"><g
         id="g44"><circle
           fill="#000000"
           cx="30.614"
           cy="53.406"
           r="1.427"
           id="circle46" /></g><g
         id="g48"><circle
           fill="#000000"
           cx="69.262"
           cy="53.406"
           r="1.427"
           id="circle50" /></g></g><g
       display="inline"
       id="g52"><g
         id="g54"><path
           fill="#000000"
           d="M50.357,65.647c-2.129,0-4.236-0.521-4.837-0.972c-0.221-0.166-0.266-0.479-0.101-0.7     s0.479-0.267,0.7-0.101c0.683,0.512,5.576,1.457,7.646-0.008c0.225-0.16,0.537-0.107,0.697,0.119     c0.159,0.226,0.106,0.538-0.119,0.697C53.34,65.394,51.843,65.647,50.357,65.647z"
           id="path56" /></g><g
         id="g58"><path
           fill="#000000"
           d="M50.037,68.792c-3.625,0-7.482-1.521-8.972-3.536c-0.55-0.744-0.726-1.511-0.509-2.217     c0.667-2.171,2.17-2.464,3.551-2.464c0.686,0,1.438,0.079,2.308,0.17c1.067,0.111,2.276,0.238,3.621,0.238     c1.276,0,2.43-0.094,3.449-0.177c0.838-0.067,1.563-0.126,2.224-0.126c1.467,0,3.046,0.281,3.648,2.367     c0.224,0.774,0.031,1.596-0.555,2.375C57.334,67.375,53.647,68.792,50.037,68.792z M44.107,61.575     c-1.517,0-2.196,0.46-2.595,1.758c-0.122,0.396-0.001,0.843,0.357,1.328c1.137,1.539,4.502,3.131,8.167,3.131     c3.723,0,6.883-1.53,7.967-2.97c0.396-0.526,0.527-1.029,0.393-1.497c-0.354-1.229-1.033-1.645-2.688-1.645     c-0.621,0-1.326,0.057-2.144,0.123c-1.037,0.084-2.213,0.18-3.529,0.18c-1.397,0-2.634-0.13-3.725-0.243     C45.469,61.651,44.741,61.575,44.107,61.575z"
           id="path60" /></g></g></g><g
     display="none"
     id="g62"><g
       display="inline"
       id="g64"><g
         id="g66"><g
           id="g68"><circle
             cx="66.273"
             cy="59.91"
             r="1.327"
             id="circle70" /></g></g><g
         id="g72"><g
           id="g74"><circle
             cx="38.102"
             cy="59.91"
             r="1.326"
             id="circle76" /></g></g></g><g
       display="inline"
       id="g78"><g
         id="g80"><path
           fill="#000000"
           d="M52.158,69.601c-0.221,0-0.432-0.01-0.634-0.024c-2.749-0.212-4.996-1.755-5.921-3.101     c-0.186-0.27-0.116-0.638,0.153-0.823c0.27-0.184,0.637-0.115,0.821,0.152c0.771,1.12,2.676,2.411,5.038,2.591     c1.604,0.121,3.995-0.246,6.317-2.708c0.226-0.239,0.601-0.25,0.837-0.026c0.236,0.225,0.247,0.599,0.024,0.837     C56.438,68.997,53.98,69.601,52.158,69.601z"
           id="path82" /></g></g><g
       display="inline"
       id="g84"><path
         d="M77.918,66.845c-5.342,8.6-14.874,14.342-25.723,14.342c-13.854,0-25.557-9.361-29.134-22.089    c-0.286,0.644-0.594,1.308-0.948,2.015c0.833,1.378,1.453,3.426,1.629,5.647c5.576,9.976,16.238,16.738,28.454,16.738    c10.353,0,19.587-4.86,25.557-12.412C77.491,69.781,77.479,68.324,77.918,66.845z"
         id="path86" /></g><path
       display="inline"
       d="M93.043,61.246c2.94-7.682,1.406-15.358-1.836-18.676c2.415-8.735,0.77-15.951-4.553-19.959   c-1.557-8.266-10.42-11.688-14.333-11.429c-1.79-4.006-9.07-5.823-14.138-5.823c-2.005,0-4.395,0.272-5.7,1.397   c-1.163-0.656-2.585-0.988-4.246-0.988c-5.649,0-13.727,4.256-15.227,8.53c-0.283-0.033-0.571-0.049-0.863-0.049   c-5.67,0-12.039,6.266-13.303,11.435c-5.728,2.5-9.842,9.983-7.241,18.822c-0.507,0.775-1.015,1.479-1.509,2.162   c-2.334,3.229-4.359,6.031-2.156,11.892c-0.074,0.112-0.15,0.229-0.228,0.346C6.025,61.47,3.263,65.667,6.71,70.668   c-0.919,1.121-1.303,2.628-1.114,4.423c0.263,2.489,1.684,5.357,3.269,6.87c-1.743,2.407-2.134,5.191-1.196,8.471   c0.753,2.633,2.655,4.334,4.848,4.334c1.851,0,3.428-1.208,4.181-3.137c2.848-0.489,4.267-1.959,4.982-3.257   c4.032-0.202,5.327-2.765,6.48-5.623c2.388-0.603,5.842-3.698,6.303-5.897c0.13-0.624-0.269-1.232-0.892-1.363   c-0.622-0.132-1.233,0.268-1.362,0.89c-0.324,1.548-3.743,4.175-4.771,4.175c-0.01,0-0.02-0.002-0.028-0.002   c-0.501-0.029-0.957,0.261-1.14,0.725c-1.034,2.603-1.687,4.25-3.805,4.693c0.432-3.018-0.755-6.524-2.267-9.218   c1.71-1.146,2.906-2.962,3.489-5.323c0.921-3.73,0.102-7.887-1.288-10.182c1.906-3.807,2.811-6.677,2.742-8.71   c3.465-1.243,7.263-5.496,8.263-8.659c3.424-0.262,9.575-1.082,12.506-6.281c1.946,1.938,4.057,2.392,5.605,2.392   c1.491,0,3.087-0.428,4.569-1.217l0.04,0.04c2.008,2.007,3.906,3.902,6.724,3.902c0.585,0,1.182-0.08,1.802-0.242   c1.975,3.495,6.628,4.792,9.509,4.792c0.333,0,0.645-0.016,0.934-0.048c0.107,2.537,0.933,4.645,1.942,5.867   c-1.236,3.288,0.175,8.907,2.024,11.367c-2.681,3.839-1.389,8.044,0.06,10.209c-1.991,2.725-2.047,4.785-0.172,7.454   c-1.327,1.131-2.24,2.626-2.617,4.239c-2.583-0.377-3.011-2.839-3.087-3.654c-0.057-0.62-0.604-1.061-1.218-1.043   c-0.85,0.047-4.339-1.075-4.614-2.869c-0.095-0.629-0.681-1.063-1.311-0.966c-0.628,0.096-1.061,0.683-0.965,1.311   c0.431,2.835,3.885,4.354,5.964,4.732c0.524,2.342,2.204,4.431,5.078,4.776c0.216,2.299,1.569,4.296,3.793,5.525   c0.603,0.4,1.233,0.602,1.874,0.602c1.725,0,2.96-1.449,3.677-2.617c0.67,0.459,1.571,0.886,2.61,0.886   c0.883,0,2.188-0.323,3.398-1.872c2.657-3.395,3.382-9.243-0.097-14.23C95.929,72.113,94.82,64.679,93.043,61.246z M90.795,61.934   c1.744,2.838,2.716,10.155-1.649,14.021c-0.46,0.41-0.519,1.108-0.13,1.586c3.431,4.221,2.951,9.336,0.705,12.206   c-0.521,0.666-1.042,0.991-1.59,0.991c-0.896,0-1.808-0.841-2.079-1.163c-0.257-0.31-0.659-0.465-1.063-0.396   c-0.401,0.063-0.737,0.334-0.887,0.711c-0.416,1.039-1.42,2.58-2.259,2.58c-0.187,0-0.399-0.079-0.628-0.235   c-0.031-0.021-0.064-0.042-0.098-0.059c-1.683-0.917-2.638-2.352-2.688-4.041c-0.057-1.874,0.996-3.722,2.748-4.817   c0.28-0.175,0.471-0.463,0.525-0.789c0.053-0.326-0.037-0.659-0.248-0.915c-1.976-2.398-2.214-3.508,0.003-6.225   c0.359-0.44,0.343-1.081-0.042-1.501c-1.217-1.332-2.9-5.387,0.021-8.754c0.21-0.242,0.31-0.562,0.274-0.879   c-0.036-0.319-0.203-0.608-0.46-0.799c-1.442-1.061-3.402-7.508-1.852-10.011c0.313-0.505,0.188-1.167-0.29-1.523   c-0.832-0.625-1.948-3.019-1.695-6.168c0.034-0.437-0.222-0.827-0.6-1.051c-0.375-0.223-0.886-0.184-1.255,0.057   c-0.088,0.057-0.512,0.208-1.401,0.208c-2.405,0-6.654-1.167-7.82-4.3c-0.108-0.287-0.326-0.52-0.604-0.646   c-0.28-0.125-0.599-0.136-0.884-0.025c-0.739,0.284-1.393,0.42-2.002,0.42c-1.866,0-3.223-1.354-5.101-3.23l-0.675-0.669   c-0.383-0.376-0.971-0.438-1.423-0.149c-1.336,0.854-2.803,1.323-4.135,1.323c-1.944,0-3.611-0.97-4.954-2.883   c-0.246-0.35-0.666-0.533-1.092-0.478c-0.425,0.057-0.783,0.346-0.928,0.75c-1.87,5.197-7.184,6.235-12.136,6.565   c-0.545,0.036-0.988,0.451-1.062,0.991c-0.353,2.584-4.691,7.428-7.665,7.924c-0.321,0.054-0.604,0.241-0.779,0.515   c-0.175,0.275-0.226,0.611-0.139,0.925c0.239,0.858,0.204,3.144-2.714,8.807c-0.205,0.4-0.16,0.881,0.116,1.233   c1.276,1.632,2.1,5.572,1.293,8.838c-0.368,1.492-1.244,3.468-3.324,4.402c-0.305,0.138-0.535,0.4-0.629,0.722   c-0.096,0.321-0.046,0.667,0.134,0.947c2.173,3.379,3.064,7.021,2.386,9.41c-0.237,0.204-0.397,0.498-0.411,0.834   c-0.001,0.045,0.018,0.084,0.021,0.128c-0.7,1.214-2.012,1.933-3.921,2.127c-0.479,0.048-0.878,0.39-0.997,0.856   c-0.342,1.337-1.184,2.166-2.198,2.166c-1.14,0-2.176-1.048-2.64-2.668c-0.841-2.941-0.369-5.251,1.484-7.269   c0.248-0.27,0.352-0.639,0.282-0.997c-0.07-0.359-0.306-0.663-0.636-0.818c-0.927-0.438-2.839-3.152-3.125-5.866   c-0.152-1.443,0.202-2.505,1.05-3.153c0.249-0.188,0.409-0.47,0.445-0.779c0.036-0.308-0.055-0.62-0.252-0.86   c-3.326-4.064-1.2-7.293,0.506-9.889c0.206-0.312,0.399-0.605,0.569-0.882c0.192-0.311,0.225-0.697,0.086-1.037   c-2.068-5.064-0.66-7.011,1.671-10.235c0.579-0.801,1.235-1.708,1.874-2.726c0.181-0.287,0.225-0.64,0.121-0.963   c-2.601-8.062,1.156-14.836,6.291-16.729c0.389-0.143,0.67-0.485,0.737-0.894c0.689-4.247,6.444-10.156,11.167-10.156   c0.502,0,0.983,0.069,1.431,0.207c0.347,0.107,0.726,0.044,1.02-0.174c0.294-0.217,0.466-0.559,0.466-0.924   c0-1.057,1.337-2.941,4.323-4.769c2.842-1.741,6.234-2.821,8.851-2.821c1.612,0,2.877,0.383,3.758,1.14   c0.292,0.25,0.691,0.338,1.058,0.234c0.369-0.103,0.664-0.385,0.782-0.75c0.104-0.323,1.347-1.033,4.348-1.033   c5.36,0,11.723,2.153,12.215,5.034c0.058,0.34,0.267,0.636,0.566,0.806c0.302,0.17,0.661,0.196,0.982,0.071   c0.077-0.03,0.313-0.101,0.795-0.101c3.01,0,10.657,2.869,11.722,9.969c0.047,0.312,0.22,0.59,0.479,0.771   c4.916,3.441,6.325,10.148,3.864,18.399c-0.132,0.444,0.015,0.924,0.374,1.217c2.676,2.19,4.698,9.341,1.529,17.074   C90.573,61.235,90.603,61.62,90.795,61.934z"
       id="path88" /></g><g
     display="none"
     id="g90"><path
       display="inline"
       fill="#000000"
       d="M62.328,31.187c0,0,0.907-5.112,7.638-4.656c-0.001-0.005,0.002-0.012,0.001-0.017   c-0.224-2.429-7.194-6.09-9.473-6.025c-0.904,0.025-2.304,1.212-3.373,2.265C61.352,26.364,62.328,31.187,62.328,31.187z"
       id="path92" /><path
       display="inline"
       fill="#000000"
       d="M80.913,65.47c-0.034,0-0.068-0.003-0.103-0.011   c-15.271-3.406-22.992-12.678-24.035-20.327c-13.519,16.591-29.3,16.794-36.956,16.892l-0.836,0.012   c-0.232,0.004-0.459,0.006-0.682,0.006c-0.001,0-0.001,0-0.001,0c-7.009,0-10.178-1.99-13.282-5.427   c-0.114-0.126-0.152-0.304-0.099-0.466s0.189-0.282,0.356-0.316c3.761-0.766,5.848-5.43,8.491-11.336   c1.059-2.368,2.155-4.816,3.488-7.316c3.73-6.994,12.329-18.727,28.007-18.727l0.259,0.001c11.422,0.096,15.438,8.031,16.61,11.307   c0.768-1.509,2.595-3.694,6.743-3.694c0.931,0,1.945,0.112,3.016,0.332c7.8,1.603,7.124,14.671,6.837,20.251   c-0.045,0.854-0.08,1.528-0.064,1.863c0.023,0.47,0.005,1.095-0.017,1.82c-0.096,3.319-0.258,8.862,2.632,14.34   c0.08,0.085,0.128,0.198,0.128,0.324c0,0.265-0.211,0.479-0.481,0.474C80.92,65.47,80.917,65.47,80.913,65.47z M57.139,43.442   c0.049,0,0.097,0.007,0.145,0.022c0.188,0.061,0.32,0.231,0.329,0.43c0.336,7.344,7.5,16.753,22.422,20.41   c-2.584-5.444-2.424-10.961-2.335-14c0.021-0.705,0.038-1.314,0.018-1.747c-0.019-0.382,0.016-1.042,0.063-1.958   c0.251-4.877,0.921-17.835-6.081-19.273c-1.008-0.208-1.959-0.313-2.825-0.313c-5.514,0-6.316,4.268-6.323,4.311   c-0.039,0.225-0.232,0.389-0.46,0.393c-0.003,0-0.006,0-0.008,0c-0.225,0-0.419-0.159-0.464-0.379   c-0.099-0.483-2.564-11.824-16.107-11.938L45.261,19.4c-15.184,0-23.54,11.419-27.17,18.225c-1.318,2.471-2.407,4.905-3.46,7.258   c-2.579,5.762-4.65,10.39-8.382,11.665c2.822,2.954,5.753,4.546,12.051,4.546c0,0,0.001,0,0.002,0c0.218,0,0.44-0.002,0.667-0.006   l0.84-0.012c7.647-0.098,23.561-0.304,36.959-17.452C56.856,43.508,56.996,43.442,57.139,43.442z"
       id="path94" /><path
       display="inline"
       fill="#000000"
       d="M44.831,91.23c-17.562,0-31.318-12.277-31.318-27.949c0-0.63,0.029-1.282,0.091-2.058   l0.042-0.513l0.507,0.083c1.405,0.229,2.977,0.326,4.824,0.294l0.84-0.012c7.647-0.098,23.561-0.304,36.958-17.452l0.787-1.009   l0.059,1.279c0.309,6.742,6.42,15.402,19.377,19.549l0.339,0.107l-0.01,0.355C76.933,78.973,62.354,91.23,44.831,91.23z    M14.512,61.806c-0.035,0.535-0.051,1.014-0.051,1.476c0,15.141,13.34,27.001,30.371,27.001c16.876,0,30.938-11.652,31.537-26.047   c-12.421-4.087-18.654-12.3-19.583-19.104c-13.52,16.591-29.3,16.794-36.956,16.892l-0.836,0.012   C17.305,62.063,15.84,61.989,14.512,61.806z"
       id="path96" /><g
       display="inline"
       id="g98"><path
         fill="#000000"
         d="M61.147,79.388c-6.693,0-12.139-4.835-12.139-10.777s5.446-10.777,12.139-10.777    c6.692,0,12.139,4.835,12.139,10.777S67.84,79.388,61.147,79.388z M61.147,58.78c-6.172,0-11.192,4.41-11.192,9.83    s5.02,9.829,11.192,9.829c6.171,0,11.191-4.409,11.191-9.829S67.318,58.78,61.147,58.78z"
         id="path100" /></g><g
       display="inline"
       id="g102"><circle
         fill="#000000"
         cx="60.494"
         cy="68.801"
         r="1.125"
         id="circle104" /></g><path
       display="inline"
       fill="#000000"
       d="M29.63,79.388c-6.693,0-12.139-4.835-12.139-10.777c0-2.773,1.192-5.412,3.357-7.429   c0.085-0.079,0.197-0.124,0.313-0.127c3.633-0.072,8.487-0.363,13.823-1.986c0.111-0.035,0.234-0.025,0.341,0.025   c3.974,1.879,6.443,5.525,6.443,9.517C41.769,74.553,36.323,79.388,29.63,79.388z M21.364,61.999   c-1.888,1.817-2.926,4.159-2.926,6.611c0,5.42,5.02,9.829,11.191,9.829s11.191-4.409,11.191-9.829c0-3.566-2.194-6.84-5.738-8.581   C29.795,61.612,24.997,61.92,21.364,61.999z"
       id="path106" /><circle
       display="inline"
       fill="#000000"
       cx="30.283"
       cy="68.801"
       r="1.125"
       id="circle108" /><path
       display="inline"
       fill="#000000"
       d="M49.482,70.149c-0.128,0-0.258-0.053-0.351-0.155c-0.941-1.04-2.371-1.652-3.923-1.68   c-1.405-0.039-2.754,0.441-3.511,1.218c-0.184,0.188-0.483,0.193-0.67,0.01c-0.188-0.183-0.192-0.482-0.009-0.67   c0.947-0.974,2.512-1.541,4.207-1.505c1.813,0.033,3.492,0.758,4.607,1.99c0.176,0.194,0.161,0.494-0.033,0.67   C49.708,70.109,49.596,70.149,49.482,70.149z"
       id="path110" /><path
       display="inline"
       fill="#000000"
       d="M45.366,81.091c-0.177,0-0.347-0.008-0.508-0.02c-2.202-0.17-4.002-1.405-4.743-2.483   c-0.148-0.216-0.093-0.511,0.123-0.659c0.216-0.147,0.511-0.093,0.659,0.122c0.617,0.897,2.143,1.931,4.034,2.075   c1.286,0.096,3.201-0.197,5.06-2.17c0.18-0.191,0.48-0.199,0.67-0.021c0.19,0.18,0.199,0.479,0.02,0.67   C48.793,80.607,46.825,81.091,45.366,81.091z"
       id="path112" /><path
       display="inline"
       fill="#000000"
       d="M85.036,86.265c-4.576,0-9.984-1.545-14.744-6.485l0.683-0.656   c6.21,6.444,13.171,6.535,16.775,6.014c3.588-0.521,5.883-1.861,6.273-2.314c-0.098-0.14-0.396-0.393-0.642-0.602   c-1.533-1.307-4.724-4.024-5-12.529l-0.006-0.189c-0.23-7.116-0.326-10.063,2.382-25.253c1.72-9.645,0.036-19.148-4.503-25.42   c-3.181-4.395-7.508-7.01-12.861-7.772c-13.551-1.931-17.629,4.879-19.821,8.537c-0.169,0.282-0.325,0.543-0.474,0.778   l-0.802-0.504c0.145-0.23,0.298-0.485,0.463-0.761c2.142-3.572,6.595-11.005,20.767-8.988c5.538,0.789,10.205,3.609,13.495,8.155   c4.688,6.477,6.433,16.25,4.669,26.143C89,59.508,89.095,62.424,89.323,69.471l0.006,0.189c0.262,8.087,3.237,10.621,4.667,11.839   c0.555,0.472,0.954,0.812,1.001,1.288c0.056,0.556-0.665,1.184-2.144,1.867C90.976,85.523,88.206,86.265,85.036,86.265z"
       id="path114" /></g><g
     display="none"
     id="g116"><g
       display="inline"
       id="g118"><g
         id="g120"><path
           d="M49.996,79.165c-14.379,0-26.967-9.461-29.93-22.495c-0.08-0.352,0.02-0.72,0.267-0.982     c0.247-0.263,0.612-0.385,0.964-0.328c4.395,0.713,9.526,0.703,14.811-0.042c14.608-2.06,26.25-14.885,26.365-15.014     c0.291-0.325,0.746-0.442,1.159-0.302c0.411,0.141,0.699,0.515,0.73,0.948c0.005,0.074,0.584,7.39,5.238,11.98     c4.75,4.687,8.497,6.009,8.533,6.021c0.282,0.098,0.511,0.306,0.635,0.574c0.124,0.271,0.132,0.579,0.021,0.854     c-0.036,0.093-0.867,2.021-1.251,2.768c-0.074,0.143-0.148,0.275-0.225,0.409l-0.086,0.153c-0.414,0.717-1.021,1.702-1.132,1.883     C70.461,74.102,60.711,79.165,49.996,79.165z M22.585,57.73c3.349,11.254,14.612,19.266,27.411,19.266     c9.984,0,19.06-4.7,24.273-12.572c0.091-0.147,0.679-1.103,1.072-1.783l0.086-0.151c0.063-0.111,0.126-0.224,0.185-0.337     c0.174-0.34,0.484-1.026,0.741-1.607c-1.563-0.746-4.665-2.509-8.276-6.071c-3.592-3.544-5.01-8.347-5.555-11.13     c-3.768,3.644-13.934,12.405-26.112,14.122C31.547,58.15,26.805,58.239,22.585,57.73z"
           id="path122" /></g><g
         id="g124"><path
           d="M75.146,66.177c-0.394,0-0.756-0.213-0.948-0.558c-0.19-0.343-0.181-0.764,0.025-1.098     c0.298-0.479,1.121-1.825,1.366-2.296c0.163-0.314,0.484-1.021,0.764-1.653c-1.562-0.742-4.65-2.497-8.275-6.074     c-3.592-3.543-5.01-8.347-5.555-11.13c-3.768,3.644-13.935,12.405-26.112,14.122c-2.797,0.394-5.555,0.594-8.196,0.594     c-8.807,0-15.133-2.263-16.614-4.393c-0.284-0.41-0.253-0.962,0.076-1.336c1.871-2.126,2.645-3.006,4.03-7.299     c0.333-1.03,0.646-2.284,1.011-3.737c1.958-7.814,5.234-20.891,19.305-25.341c3.87-1.223,7.519-1.844,10.847-1.844     c6.022,0,9.77,1.97,11.962,3.824c2.04-1.015,4.327-1.529,6.807-1.529c5.757,0,11.353,2.834,14.116,5.468     c3.789,3.614,7.777,8.655,7.112,22.819C86.218,58.535,76.161,66.177,75.146,66.177z M63.281,39.968     c0.117,0,0.234,0.019,0.351,0.059c0.411,0.141,0.699,0.515,0.73,0.948c0.005,0.074,0.584,7.39,5.238,11.979     c4.744,4.68,8.499,6.012,8.536,6.024c0.285,0.098,0.518,0.313,0.64,0.587c0.07,0.161,0.102,0.336,0.091,0.508     c2.591-3.205,5.5-8.34,5.833-15.457c0.623-13.253-2.841-17.714-6.443-21.148c-2.459-2.345-7.458-4.869-12.618-4.869     c-2.385,0-4.548,0.543-6.43,1.616c-0.416,0.236-0.938,0.173-1.286-0.158c-1.796-1.712-5.171-3.753-11.053-3.753     c-3.106,0-6.536,0.586-10.192,1.743c-12.916,4.084-15.889,15.949-17.856,23.8c-0.374,1.491-0.696,2.777-1.051,3.876     c-1.296,4.018-2.156,5.378-3.787,7.285c1.756,1.236,6.671,2.907,14.23,2.907c2.541,0,5.197-0.192,7.894-0.572     c14.607-2.06,26.25-14.886,26.365-15.015C62.683,40.094,62.978,39.968,63.281,39.968z"
           id="path126" /></g></g><g
       display="inline"
       id="g128"><g
         id="g130"><circle
           cx="62.196"
           cy="61.908"
           r="1.152"
           id="circle132" /></g><g
         id="g134"><circle
           cx="37.728"
           cy="61.908"
           r="1.152"
           id="circle136" /></g></g><g
       display="inline"
       id="g138"><path
         fill="#000000"
         d="M49.937,70.325c-0.191,0-0.375-0.009-0.551-0.021c-2.387-0.185-4.339-1.524-5.143-2.693    c-0.161-0.233-0.101-0.554,0.133-0.715c0.234-0.16,0.554-0.101,0.714,0.133c0.669,0.973,2.324,2.094,4.374,2.25    c1.395,0.104,3.471-0.214,5.488-2.353c0.195-0.208,0.521-0.217,0.727-0.022c0.206,0.194,0.216,0.52,0.021,0.727    C53.654,69.801,51.52,70.325,49.937,70.325z"
         id="path140" /></g><g
       display="inline"
       id="g142"><path
         d="M77.113,68.883c-0.704,1.609-1.902,2.167-2.989,1.692c-1.087-0.476-1.654-1.803-0.95-3.414    c0.704-1.609,2.012-2.177,3.1-1.701C77.361,65.934,77.816,67.272,77.113,68.883z"
         id="path144" /></g><g
       display="inline"
       id="g146"><path
         d="M83.626,84.753c-0.086,0-0.171-0.021-0.248-0.061c-0.31-0.159-7.586-3.942-9.012-7.894    c-0.89-2.467-0.793-5.122,0.272-7.48c1.067-2.361,2.979-4.141,5.383-5.008c0.5-0.18,1.066-0.271,1.684-0.271    c5.094,0,12.749,6.204,13.072,6.468c0.127,0.105,0.2,0.261,0.199,0.425c-0.001,0.165-0.077,0.32-0.206,0.422    c-0.09,0.069-1.98,1.54-4.499,1.914c1.023,1.723,1.682,4.688,0.679,5.941c-0.776,0.969-2.516,1.113-3.482,1.113    c-1.022,0-2.059-0.149-2.907-0.403c0.397,2.064-0.383,4.354-0.423,4.47c-0.052,0.147-0.165,0.267-0.311,0.325    C83.762,84.74,83.693,84.753,83.626,84.753z M81.705,65.124c-0.491,0-0.934,0.069-1.315,0.207    c-2.126,0.768-3.817,2.342-4.764,4.435c-0.947,2.098-1.033,4.465-0.239,6.665c1.063,2.949,6.163,6.007,7.904,6.98    c0.241-0.972,0.574-2.874-0.096-4.199c-0.108-0.216-0.063-0.477,0.114-0.643c0.176-0.163,0.44-0.191,0.647-0.068    c0.728,0.435,2.171,0.737,3.511,0.737c1.276,0,2.286-0.271,2.636-0.707c0.746-0.933-0.155-4.253-1.229-5.338    c-0.152-0.155-0.198-0.385-0.116-0.586c0.081-0.2,0.274-0.334,0.491-0.338c1.824-0.036,3.438-0.863,4.266-1.374    C91.646,69.464,85.655,65.124,81.705,65.124z"
         id="path148" /></g><g
       display="inline"
       id="g150"><path
         d="M22.983,68.883c0.704,1.609,1.902,2.167,2.99,1.692c1.086-0.476,1.654-1.803,0.95-3.414    c-0.705-1.609-2.013-2.177-3.1-1.701C22.735,65.934,22.28,67.272,22.983,68.883z"
         id="path152" /></g><g
       display="inline"
       id="g154"><path
         d="M16.471,84.753c-0.068,0-0.137-0.013-0.201-0.039c-0.146-0.059-0.26-0.178-0.311-0.325    c-0.04-0.116-0.821-2.405-0.423-4.47c-0.849,0.254-1.885,0.403-2.908,0.403c-0.967,0-2.705-0.144-3.481-1.113    c-1.003-1.254-0.346-4.219,0.679-5.941c-2.519-0.374-4.41-1.845-4.499-1.914c-0.129-0.102-0.205-0.257-0.207-0.422    c-0.001-0.164,0.072-0.319,0.199-0.425c0.323-0.264,7.979-6.468,13.072-6.468c0.617,0,1.183,0.092,1.683,0.271    c2.405,0.867,4.316,2.646,5.384,5.008c1.065,2.358,1.161,5.014,0.271,7.48c-1.425,3.951-8.702,7.734-9.01,7.894    C16.641,84.732,16.556,84.753,16.471,84.753z M16.417,78.425c0.134,0,0.267,0.05,0.37,0.145c0.176,0.166,0.223,0.427,0.115,0.643    c-0.672,1.33-0.338,3.229-0.096,4.2c1.741-0.974,6.841-4.032,7.905-6.981c0.793-2.2,0.708-4.567-0.24-6.665    c-0.946-2.093-2.638-3.667-4.763-4.435c-0.382-0.138-0.824-0.207-1.315-0.207c-3.954,0-9.942,4.34-11.81,5.771    c0.827,0.511,2.443,1.338,4.266,1.374c0.216,0.004,0.41,0.138,0.492,0.338c0.082,0.201,0.036,0.431-0.117,0.586    c-1.074,1.085-1.976,4.405-1.229,5.338c0.349,0.436,1.358,0.707,2.634,0.707c1.34,0,2.784-0.303,3.511-0.737    C16.225,78.45,16.321,78.425,16.417,78.425z"
         id="path156" /></g></g><g
     display="none"
     id="g158"><g
       display="inline"
       id="g160"><path
         d="M50.41,73.46c-9.688,0-18.541-4.917-23.679-13.151c-1.237-2.142-2.107-4.135-2.345-4.696l-0.092-0.231    c-0.212-0.57,0.052-1.208,0.606-1.461c11.06-5.043,15.306-22.283,15.348-22.457c0.109-0.455,0.481-0.801,0.944-0.875    c0.461-0.078,0.924,0.136,1.171,0.535c2.079,3.358,11.867,13.382,23.371,14.238c4.955,0.368,8.245,0.388,11.281,0.086    c0.32-0.032,0.66,0.079,0.903,0.304c0.244,0.226,0.38,0.546,0.371,0.878C77.926,61.675,65.679,73.46,50.41,73.46z M26.884,55.527    c0.387,0.852,1.032,2.193,1.835,3.587c4.692,7.517,12.808,12.024,21.69,12.024c13.557,0,24.515-10.121,25.497-23.272    c-2.843,0.192-5.946,0.136-10.344-0.192c-10.763-0.8-19.872-8.741-23.714-13.359C40.29,39.272,35.832,50.772,26.884,55.527z"
         id="path162" /></g><g
       display="inline"
       id="g164"><g
         id="g166"><path
           d="M26.807,73.46c-3.622,0-6.743-1.839-9.028-5.32c-2.91-4.437-3.698-12.277-2.407-23.973     c1.023-9.265,5.228-17.746,11.842-23.881c1.091-1.013,4.71-3.568,8.662-3.568c1.313,0,2.521,0.285,3.605,0.848     C46.47,7.258,55.938,5.687,61.052,5.687c4.085,0,8.219,0.977,11.34,2.68c7.285,3.973,12.231,12.735,14.705,26.045     c0.511,2.75,1.945,4.087,4.387,4.087c0.84,0,1.598-0.164,2.086-0.302c0.525-0.149,1.082,0.09,1.34,0.571     c0.256,0.481,0.143,1.077-0.272,1.43c-6.497,5.523-12.909,7.776-22.129,7.776c-1.995,0-4.203-0.096-6.945-0.299     c-10.311-0.767-19.577-7.974-23.719-12.968c-1.563,4.963-6.021,16.445-14.958,21.197c0.711,1.56,2.219,4.628,3.951,6.714     c2.457,2.958,5.179,5.417,5.207,5.441c0.255,0.23,0.396,0.562,0.383,0.903c-0.013,0.344-0.176,0.664-0.446,0.875     C32.938,72.208,29.766,73.46,26.807,73.46z M35.875,19.038c-2.952,0-6.027,1.968-7.054,2.92     C22.587,27.743,18.64,35.71,17.679,44.421c-1.212,10.982-0.526,18.534,2.04,22.444c1.861,2.836,4.246,4.273,7.088,4.273     c2.098,0,4.373-0.801,6.643-2.331c-1.058-1.02-2.767-2.741-4.398-4.707c-2.628-3.164-4.662-8.098-4.748-8.307     c-0.235-0.576,0.026-1.237,0.594-1.495c11.063-5.041,15.31-22.286,15.351-22.459c0.109-0.455,0.481-0.801,0.944-0.875     c0.461-0.077,0.924,0.137,1.171,0.535c2.657,4.293,12.549,13.057,23.371,13.861c2.684,0.2,4.837,0.292,6.773,0.292     c6.242,0,11.76-0.903,17.654-4.942c-2.035-0.345-4.563-1.657-5.348-5.875c-2.306-12.413-6.986-20.861-13.532-24.432     c-2.793-1.523-6.521-2.396-10.23-2.396c-4.793,0-13.794,1.528-20.24,11.763c-0.173,0.274-0.453,0.463-0.771,0.522     c-0.32,0.06-0.647-0.019-0.907-0.213C38.21,19.389,37.115,19.038,35.875,19.038z"
           id="path168" /></g><g
         id="g170"><path
           d="M27.145,73.594c-0.964,1.399-3.339,1.437-5.968-0.372c-2.627-1.808-3.333-3.97-2.371-5.368     c0.965-1.399,3.233-1.509,5.86,0.3C27.294,69.961,28.107,72.196,27.145,73.594z"
           id="path172" /></g><g
         id="g174"><g
           id="g176"><path
             d="M21.315,94.313c-0.303,0-0.591-0.135-0.788-0.372c-0.182-0.222-1.67-2.092-2.333-4.688      c-1.379,0.811-3.107,1.333-4.477,1.333c-0.847,0-1.53-0.192-2.032-0.572c-1.258-0.952-1.545-3.103-1.605-4.298      c-0.049-0.963,0.007-1.956,0.16-2.86c-0.403,0.062-0.832,0.092-1.28,0.092c-1.732,0-3.205-0.454-3.267-0.474      c-0.285-0.088-0.521-0.299-0.646-0.579c-0.054-0.124-0.085-0.254-0.092-0.389c-0.008-0.169,0.022-0.331,0.088-0.483      c0.404-0.938,4.08-9.206,8.439-11.106c2.773-1.208,5.863-1.246,8.632-0.102c2.786,1.154,4.949,3.357,6.09,6.204      c0.246,0.613,0.391,1.312,0.428,2.075c0.304,6.091-6.203,15.388-6.48,15.78c-0.188,0.266-0.478,0.424-0.794,0.438H21.315z       M18.925,86.292c0.121,0,0.24,0.021,0.354,0.063c0.385,0.14,0.656,0.506,0.684,0.929c0.114,1.647,0.787,3.121,1.342,4.084      c1.671-2.619,5.466-9.052,5.26-13.171c-0.026-0.521-0.119-0.982-0.275-1.371c-0.928-2.312-2.684-4.102-4.945-5.037      c-2.256-0.933-4.78-0.903-7.048,0.086c-2.853,1.245-5.692,6.549-6.802,8.821c0.432,0.067,0.95,0.123,1.484,0.123      c0.951,0,1.724-0.173,2.296-0.513c0.389-0.236,0.919-0.168,1.248,0.165c0.321,0.325,0.4,0.838,0.193,1.247      c-0.402,0.795-0.641,2.432-0.567,3.893c0.075,1.507,0.448,2.451,0.763,2.69c0.148,0.112,0.425,0.174,0.782,0.174      c1.418,0,3.67-0.925,4.463-1.833C18.353,86.419,18.633,86.292,18.925,86.292z"
             id="path178" /></g></g></g><g
       display="inline"
       id="g180"><g
         id="g182"><g
           id="g184"><circle
             cx="64.567"
             cy="53.384"
             r="1.337"
             id="circle186" /></g></g><g
         id="g188"><g
           id="g190"><circle
             cx="36.173"
             cy="53.384"
             r="1.337"
             id="circle192" /></g></g></g><g
       display="inline"
       id="g194"><g
         id="g196"><path
           fill="#000000"
           d="M50.34,63.15c-0.222,0-0.435-0.01-0.639-0.024c-2.77-0.215-5.035-1.769-5.967-3.126     c-0.186-0.271-0.118-0.642,0.154-0.828s0.642-0.117,0.829,0.153c0.777,1.128,2.697,2.43,5.076,2.611     c1.618,0.121,4.027-0.248,6.367-2.73c0.227-0.241,0.605-0.252,0.844-0.026c0.239,0.226,0.25,0.603,0.024,0.844     C54.654,62.542,52.177,63.15,50.34,63.15z"
           id="path198" /></g></g></g><text
     x="0"
     y="115"
     font-size="5px"
     font-weight="bold"
     id="text200"
     clip-path="url(#clipPath3542)"
     transform="matrix(0.2501537,0,0,0.2501537,-1.3229158,-0.72951334)"
     style="font-weight:bold;font-size:5px;font-family:'Helvetica Neue', Helvetica, Arial-Unicode, Arial, Sans-serif;fill:#000000">Created by Erik Kazuo Takara</text>
<text
     x="0"
     y="120"
     font-size="5px"
     font-weight="bold"
     id="text202"
     clip-path="url(#clipPath3538)"
     transform="matrix(0.2501537,0,0,0.2501537,-1.3229158,-0.72951334)"
     style="font-weight:bold;font-size:5px;font-family:'Helvetica Neue', Helvetica, Arial-Unicode, Arial, Sans-serif;fill:#000000">from the Noun Project</text>
</svg>