<?xml version="1.0" encoding="UTF-8" standalone="no"?>
<svg
   xmlns:dc="http://purl.org/dc/elements/1.1/"
   xmlns:cc="http://creativecommons.org/ns#"
   xmlns:rdf="http://www.w3.org/1999/02/22-rdf-syntax-ns#"
   xmlns:svg="http://www.w3.org/2000/svg"
   xmlns="http://www.w3.org/2000/svg"
   xmlns:sodipodi="http://sodipodi.sourceforge.net/DTD/sodipodi-0.dtd"
   xmlns:inkscape="http://www.inkscape.org/namespaces/inkscape"
   version="1.1"
   x="0px"
   y="0px"
   viewBox="0 0 100 125"
   id="svg2"
   inkscape:version="0.91 r13725"
   sodipodi:docname="noun_409497_cc.svg">
  <metadata
     id="metadata16">
    <rdf:RDF>
      <cc:Work
         rdf:about="">
        <dc:format>image/svg+xml</dc:format>
        <dc:type
           rdf:resource="http://purl.org/dc/dcmitype/StillImage" />
      </cc:Work>
    </rdf:RDF>
  </metadata>
  <defs
     id="defs14">
    <clipPath
       clipPathUnits="userSpaceOnUse"
       id="clipPath3346">
      <rect
         style="fill:#0000ff;fill-rule:evenodd;stroke:#000000;stroke-width:1px;stroke-linecap:butt;stroke-linejoin:miter;stroke-opacity:1"
         id="rect3348"
         width="93.485168"
         height="83.156776"
         x="2.9131355"
         y="10.593221" />
    </clipPath>
    <clipPath
       clipPathUnits="userSpaceOnUse"
       id="clipPath3350">
      <rect
         style="fill:#0000ff;fill-rule:evenodd;stroke:#000000;stroke-width:1px;stroke-linecap:butt;stroke-linejoin:miter;stroke-opacity:1"
         id="rect3352"
         width="93.485168"
         height="83.156776"
         x="2.9131355"
         y="10.593221" />
    </clipPath>
    <clipPath
       clipPathUnits="userSpaceOnUse"
       id="clipPath3354">
      <rect
         style="fill:#0000ff;fill-rule:evenodd;stroke:#000000;stroke-width:1px;stroke-linecap:butt;stroke-linejoin:miter;stroke-opacity:1"
         id="rect3356"
         width="93.485168"
         height="83.156776"
         x="2.9131355"
         y="962.95538" />
    </clipPath>
  </defs>
  <sodipodi:namedview
     pagecolor="#ffffff"
     bordercolor="#666666"
     borderopacity="1"
     objecttolerance="10"
     gridtolerance="10"
     guidetolerance="10"
     inkscape:pageopacity="0"
     inkscape:pageshadow="2"
     inkscape:window-width="1292"
     inkscape:window-height="804"
     id="namedview12"
     showgrid="false"
     inkscape:zoom="3.776"
     inkscape:cx="79.860949"
     inkscape:cy="54.379725"
     inkscape:window-x="0"
     inkscape:window-y="0"
     inkscape:window-maximized="0"
     inkscape:current-layer="svg2" />
  <g
     transform="matrix(0.25,0,0,0.25,-1.3262712,-241.82829)"
     id="g4"
     clip-path="url(#clipPath3354)">
    <path
       style="color:#000000;text-indent:0;text-transform:none;direction:ltr;block-progression:tb;baseline-shift:baseline;display:inline;overflow:visible;visibility:visible;fill:#000000;fill-opacity:1;stroke:none;marker:none;enable-background:accumulate"
       d="M 12,16 C 8.782154,16 6,18.50041 6,21.71875 L 6,70.25 C 6,73.4683 8.782154,76 12,76 l 28,0 0,10 -4,0 A 2.0001998,2.0001998 0 0 0 35.8125,86 2.0021961,2.0021961 0 1 0 36,90 l 28,0 a 2.0001998,2.0001998 0 1 0 0,-4 l -4,0 0,-10 28,0 c 3.217846,0 6,-2.5317 6,-5.75 L 94,21.71875 C 94,18.50041 91.217846,16 88,16 l -76,0 z m 0,4 76,0 c 1.214156,0 2,0.80056 2,1.71875 L 90,70.25 C 90,71.1682 89.214156,72 88,72 l -76,0 c -1.214156,0 -2,-0.8318 -2,-1.75 L 10,21.71875 C 10,20.80056 10.785844,20 12,20 Z m 43.75,8.96875 A 2.0002,2.0002 0 0 0 54.15625,30.25 l -12,30 a 2.0002,2.0002 0 1 0 3.6875,1.46875 l 12,-30 a 2.0002,2.0002 0 0 0 -2.09375,-2.75 z m -19.8125,5 A 2.0002,2.0002 0 0 0 35.03125,34.25 l -18,10 a 2.0002,2.0002 0 0 0 0,3.5 l 18,10 a 2.0002441,2.0002441 0 0 0 1.9375,-3.5 L 22.125,46 36.96875,37.75 A 2.0002,2.0002 0 0 0 35.9375,33.96875 Z m 27.875,0 A 2.0002,2.0002 0 0 0 63.03125,37.75 L 77.875,46 63.03125,54.25 a 2.0002441,2.0002441 0 0 0 1.9375,3.5 l 18,-10 a 2.0002,2.0002 0 0 0 0,-3.5 l -18,-10 A 2.0002,2.0002 0 0 0 63.8125,33.96875 Z M 44,76 l 12,0 0,10 -12,0 0,-10 z"
       transform="translate(0,952.36218)"
       visibility="visible"
       display="inline"
       overflow="visible"
       id="path6"
       inkscape:connector-curvature="0" />
  </g>
  <text
     x="0"
     y="115"
     font-size="5px"
     font-weight="bold"
     id="text8"
     clip-path="url(#clipPath3350)"
     transform="matrix(0.25,0,0,0.25,-1.3262712,-3.7377448)"
     style="font-weight:bold;font-size:5px;font-family:'Helvetica Neue', Helvetica, Arial-Unicode, Arial, Sans-serif;fill:#000000">Created by iconsphere</text>
  <text
     x="0"
     y="120"
     font-size="5px"
     font-weight="bold"
     id="text10"
     clip-path="url(#clipPath3346)"
     transform="matrix(0.25,0,0,0.25,-1.3262712,-3.7377448)"
     style="font-weight:bold;font-size:5px;font-family:'Helvetica Neue', Helvetica, Arial-Unicode, Arial, Sans-serif;fill:#000000">from the Noun Project</text>
</svg>
